<?xml version="1.0" standalone="no"?>
<!DOCTYPE svg PUBLIC "-//W3C//DTD SVG 20010904//EN"
 "http://www.w3.org/TR/2001/REC-SVG-20010904/DTD/svg10.dtd">
<svg version="1.0" xmlns="http://www.w3.org/2000/svg"
 width="300.000000pt" height="300.000000pt" viewBox="0 0 300.000000 300.000000"
 preserveAspectRatio="xMidYMid meet">
<metadata>
Created by potrace 1.10, written by Peter Selinger 2001-2011
</metadata>
<g transform="translate(0.000000,300.000000) scale(0.100000,-0.100000)"
fill="#000000" stroke="none">
<path d="M2199 2080 c-71 -12 -211 -89 -297 -162 -37 -31 -85 -94 -113 -148
-29 -56 -32 -168 -5 -225 10 -20 15 -42 12 -50 -2 -7 -32 -32 -65 -54 -113
-77 -311 -141 -440 -141 -53 0 -70 4 -97 25 -62 48 -68 136 -17 258 39 92 103
177 186 246 78 66 196 151 210 151 5 0 24 7 43 16 37 18 95 14 120 -7 8 -6 14
-28 14 -49 0 -43 -36 -99 -112 -172 -52 -50 -59 -68 -28 -68 48 0 180 165 180
224 0 131 -75 157 -235 81 -83 -40 -139 -79 -230 -160 -216 -194 -286 -486
-135 -566 67 -36 215 -19 381 44 36 14 74 29 85 35 10 6 39 20 64 32 25 12 59
35 76 51 28 28 32 29 45 13 40 -48 181 -105 311 -125 110 -17 188 3 172 44 -7
19 -40 23 -46 5 -3 -9 -27 -9 -109 0 -160 18 -179 22 -233 54 -75 44 -94 64
-89 96 1 15 0 21 -3 15 -10 -22 -21 -14 -32 26 -45 148 36 285 242 411 107 65
222 82 298 44 62 -32 107 -135 108 -247 0 -88 -35 -234 -92 -379 -24 -63 -39
-84 -76 -115 -26 -21 -65 -54 -87 -74 -22 -20 -81 -72 -130 -116 -103 -92
-215 -220 -268 -309 -79 -132 -69 -263 19 -246 79 15 353 372 480 627 62 123
93 164 150 196 63 35 172 132 167 147 -8 20 -20 13 -188 -103 -18 -12 -31 1
-18 17 16 19 61 183 74 268 26 171 -26 321 -131 375 -38 20 -103 26 -161 15z
m37 -965 c-36 -63 -66 -119 -66 -124 0 -5 -4 -11 -8 -13 -4 -2 -33 -39 -64
-83 -31 -44 -70 -94 -86 -112 -16 -17 -40 -47 -53 -65 -32 -47 -127 -138 -143
-138 -32 0 -35 75 -6 139 44 95 184 258 335 388 50 42 103 89 120 104 16 16
31 26 33 24 3 -2 -25 -56 -62 -120z"/>
<path d="M842 1909 c-18 -5 -38 -18 -45 -29 -6 -11 -20 -20 -30 -20 -36 0
-117 -51 -180 -113 -102 -101 -159 -198 -178 -305 -9 -49 -8 -58 9 -81 39 -53
100 -64 207 -36 79 21 241 103 298 151 16 13 32 24 36 24 19 0 102 97 111 129
12 45 13 138 1 146 -5 3 -12 18 -16 33 -3 15 -22 44 -41 65 -31 33 -43 39 -87
42 -29 3 -67 0 -85 -6z m128 -53 c0 -8 -4 -18 -10 -21 -5 -3 -10 -13 -10 -21
0 -12 4 -12 25 2 29 19 27 20 48 -22 39 -76 30 -160 -22 -213 -36 -36 -126
-102 -181 -131 -25 -14 -52 -30 -60 -36 -8 -6 -51 -24 -95 -39 -95 -33 -187
-32 -212 1 -39 52 34 221 141 325 66 65 154 120 226 140 25 7 49 16 55 21 5 4
28 8 52 8 31 0 43 -4 43 -14z"/>
</g>
</svg>
