<?xml version="1.0" standalone="no"?>
<!DOCTYPE svg PUBLIC "-//W3C//DTD SVG 20010904//EN"
 "http://www.w3.org/TR/2001/REC-SVG-20010904/DTD/svg10.dtd">
<svg version="1.0" xmlns="http://www.w3.org/2000/svg"
 width="300.000000pt" height="300.000000pt" viewBox="0 0 300.000000 300.000000"
 preserveAspectRatio="xMidYMid meet">
<metadata>
Created by potrace 1.10, written by Peter Selinger 2001-2011
</metadata>
<g transform="translate(0.000000,300.000000) scale(0.100000,-0.100000)"
fill="#000000" stroke="none">
<path d="M2275 2080 c33 -4 69 -10 80 -14 11 -3 7 0 -10 8 -16 8 -52 15 -80
14 l-50 -1 60 -7z"/>
<path d="M2120 2060 c-19 -11 -31 -19 -27 -20 5 0 18 5 30 12 12 6 36 15 52
19 27 6 28 7 5 8 -14 0 -41 -8 -60 -19z"/>
<path d="M2045 2023 c-61 -33 -164 -114 -199 -157 -61 -75 -86 -140 -84 -221
l1 -70 6 80 c12 149 79 232 297 372 28 17 14 15 -21 -4z"/>
<path d="M2113 2016 c-52 -25 -173 -102 -173 -112 0 -2 26 13 58 34 70 48 115
72 167 88 22 7 31 13 20 13 -11 1 -43 -10 -72 -23z"/>
<path d="M2327 2032 c28 -9 93 -69 93 -87 0 -8 4 -16 9 -19 5 -4 7 3 4 15 -8
30 -83 99 -108 98 -19 -1 -19 -1 2 -7z"/>
<path d="M1484 1972 c-113 -69 -249 -194 -288 -265 -13 -24 -13 -27 -2 -12 97
123 177 196 296 269 41 25 70 46 65 46 -6 -1 -37 -17 -71 -38z"/>
<path d="M1428 1889 c-146 -114 -247 -243 -272 -349 l-6 -25 11 25 c7 14 21
45 32 70 40 88 119 178 232 265 65 51 70 55 63 55 -3 0 -30 -19 -60 -41z"/>
<path d="M941 1913 c43 -5 67 -28 108 -103 17 -30 31 -51 31 -47 0 16 -41 88
-71 122 -26 29 -37 35 -68 33 l-36 -1 36 -4z"/>
<path d="M1781 1902 c-1 -28 -64 -114 -120 -164 -22 -21 -38 -38 -33 -38 33 0
166 168 159 203 -4 22 -4 22 -6 -1z"/>
<path d="M1702 1848 c-22 -29 -58 -70 -81 -91 -40 -37 -51 -57 -30 -57 5 0 8
4 5 8 -3 5 15 29 40 53 43 42 119 139 109 139 -2 0 -22 -24 -43 -52z"/>
<path d="M1880 1848 c-44 -55 -80 -122 -79 -148 0 -8 8 7 19 33 10 27 31 64
47 84 55 69 65 83 60 83 -3 0 -24 -24 -47 -52z"/>
<path d="M956 1834 c-11 -28 -6 -34 20 -23 32 12 30 13 54 -47 11 -27 19 -42
19 -34 0 8 -8 34 -19 58 -17 38 -22 42 -45 36 -20 -5 -24 -3 -19 10 3 9 4 16
1 16 -3 0 -8 -7 -11 -16z"/>
<path d="M2494 1765 c0 -49 1 -71 3 -48 2 23 2 64 0 90 -2 26 -3 8 -3 -42z"/>
<path d="M629 1792 c-20 -15 -44 -38 -55 -52 -10 -14 7 -3 39 24 49 43 64 58
55 55 -2 0 -19 -13 -39 -27z"/>
<path d="M565 1679 c-26 -27 -46 -52 -43 -54 2 -2 25 21 51 51 61 68 56 70 -8
3z"/>
<path d="M500 1655 c-41 -55 -69 -112 -50 -100 6 3 10 11 10 17 0 6 20 39 46
74 25 35 43 64 40 64 -3 0 -24 -25 -46 -55z"/>
<path d="M1013 1605 c-22 -32 -139 -125 -195 -154 -16 -8 -26 -16 -24 -18 12
-12 197 122 226 165 13 18 21 34 19 37 -2 2 -14 -12 -26 -30z"/>
<path d="M1060 1618 c0 -19 -50 -78 -84 -99 -17 -10 -25 -19 -17 -19 19 0 111
95 111 115 0 8 -2 15 -5 15 -3 0 -5 -5 -5 -12z"/>
<path d="M2446 1519 c-9 -34 -15 -63 -13 -66 2 -2 12 24 21 58 10 33 16 63 13
65 -2 2 -11 -24 -21 -57z"/>
<path d="M1840 1511 c0 -27 123 -111 162 -111 7 0 -14 13 -47 29 -34 15 -73
43 -88 60 -15 18 -27 28 -27 22z"/>
<path d="M2586 1511 c-4 -5 3 -7 14 -4 11 3 20 1 20 -5 0 -9 -106 -99 -160
-135 -13 -10 -21 -17 -17 -17 30 0 193 141 183 158 -9 14 -32 16 -40 3z"/>
<path d="M2525 1473 c-47 -31 -99 -73 -91 -73 3 0 25 15 49 33 23 17 54 40 67
49 14 9 23 17 20 17 -3 1 -23 -11 -45 -26z"/>
<path d="M1810 1455 c-7 -8 -33 -28 -58 -45 -25 -16 -41 -30 -35 -30 12 0 88
54 98 70 5 8 15 4 31 -11 13 -12 24 -18 24 -12 0 6 -11 18 -24 26 -21 14 -26
14 -36 2z"/>
<path d="M1650 1400 c-30 -16 -52 -29 -47 -30 12 0 97 41 103 51 7 12 8 12
-56 -21z"/>
<path d="M2055 1386 c22 -8 67 -14 100 -14 l60 1 -70 7 c-38 4 -83 10 -100 13
-19 4 -16 2 10 -7z"/>
<path d="M2279 1383 c-13 -16 -12 -17 3 -5 9 8 22 11 28 7 13 -8 13 -42 0 -48
-6 -3 -5 -4 2 -3 18 4 22 34 8 51 -16 19 -25 19 -41 -2z"/>
<path d="M1150 1373 c0 -28 88 -84 128 -82 9 0 -4 7 -30 15 -27 8 -57 27 -72
45 -14 17 -26 27 -26 22z"/>
<path d="M1595 1339 c-38 -15 -65 -28 -58 -29 16 0 116 39 128 51 12 12 12 12
-70 -22z"/>
<path d="M2035 1350 c28 -10 64 -18 80 -18 26 0 24 1 -10 8 -22 5 -53 13 -68
19 -16 6 -34 11 -40 10 -7 0 11 -9 38 -19z"/>
<path d="M1135 1322 c22 -36 73 -66 100 -59 15 3 13 5 -7 6 -18 1 -42 15 -69
42 -38 38 -40 39 -24 11z"/>
<path d="M2340 1342 c0 -6 -48 -53 -107 -104 -211 -182 -359 -331 -403 -405
-31 -53 -15 -38 34 30 51 72 222 239 373 367 97 81 120 106 108 118 -3 3 -5 0
-5 -6z"/>
<path d="M2392 1317 c-17 -18 -52 -75 -77 -127 -26 -52 -71 -134 -101 -183
-31 -49 -51 -87 -47 -84 15 9 108 166 158 267 26 52 61 110 78 128 17 17 29
32 26 32 -3 0 -19 -15 -37 -33z"/>
<path d="M2177 1323 c18 -2 50 -2 70 0 21 2 7 4 -32 4 -38 0 -55 -2 -38 -4z"/>
<path d="M2215 1173 c-98 -82 -335 -320 -335 -336 0 -7 12 4 27 23 67 86 347
349 360 337 3 -4 -11 -36 -31 -73 -20 -36 -35 -68 -33 -70 2 -2 25 37 51 87
27 50 46 92 44 94 -2 2 -39 -26 -83 -62z"/>
<path d="M2143 968 c-69 -104 -234 -309 -285 -353 -24 -21 -34 -33 -23 -27 48
25 250 269 339 410 44 70 21 47 -31 -30z"/>
<path d="M2058 782 c-53 -70 -110 -140 -127 -156 -17 -17 -31 -34 -31 -39 0
-21 208 234 254 311 21 34 -8 0 -96 -116z"/>
<path d="M1864 812 c-17 -11 -67 -102 -60 -109 3 -4 6 -2 6 4 0 6 15 34 34 62
19 28 34 51 33 51 -1 0 -7 -4 -13 -8z"/>
</g>
</svg>
